<svg width="54" height="54" viewBox="0 0 54 54" fill="none" xmlns="http://www.w3.org/2000/svg">
<path opacity="0.2" d="M27 54C41.9117 54 54 41.9117 54 27C54 12.0883 41.9117 0 27 0C12.0883 0 0 12.0883 0 27C0 41.9117 12.0883 54 27 54Z" fill="#CCCCDD"/>
<path fill-rule="evenodd" clip-rule="evenodd" d="M15.75 50.061C14.1997 50.061 12.9375 48.7999 12.9375 47.2485V6.75079C12.9375 5.19942 14.1997 3.93829 15.75 3.93829H38.25C39.8014 3.93829 41.0625 5.19942 41.0625 6.75079V47.2485C41.0625 48.7999 39.8014 50.061 38.25 50.061H15.75Z" fill="#EEEEF4"/>
<path fill-rule="evenodd" clip-rule="evenodd" d="M38.25 3.37579H15.75C13.8892 3.37579 12.375 4.89004 12.375 6.75079V47.2485C12.375 49.1093 13.8892 50.6235 15.75 50.6235H38.25C40.1108 50.6235 41.625 49.1093 41.625 47.2485V6.75079C41.625 4.89004 40.1108 3.37579 38.25 3.37579ZM38.25 4.50079C39.492 4.50079 40.5 5.50879 40.5 6.75079V47.2485C40.5 48.4917 39.492 49.4985 38.25 49.4985H15.75C14.508 49.4985 13.5 48.4917 13.5 47.2485V6.75079C13.5 5.50879 14.508 4.50079 15.75 4.50079H38.25Z" fill="#C2C2CF"/>
<path fill-rule="evenodd" clip-rule="evenodd" d="M15.75 43.875H38.25V10.125H15.75V43.875Z" fill="white"/>
<path fill-rule="evenodd" clip-rule="evenodd" d="M28.6875 46.6872C28.6875 47.6198 27.9326 48.3747 27 48.3747C26.0674 48.3747 25.3125 47.6198 25.3125 46.6872C25.3125 45.7557 26.0674 44.9997 27 44.9997C27.9326 44.9997 28.6875 45.7557 28.6875 46.6872Z" fill="white"/>
<path fill-rule="evenodd" clip-rule="evenodd" d="M32.9369 33.3783C32.9369 33.5527 32.7951 33.6944 32.6207 33.6944H24.8279C24.6535 33.6944 24.5117 33.5527 24.5117 33.3783V23.287C24.5117 23.1127 24.6535 22.972 24.8279 22.972H28.7912C28.9656 22.972 29.1074 23.1127 29.1074 23.287V26.4854C29.1074 26.6587 29.2491 26.8004 29.4224 26.8004H32.6207C32.7951 26.8004 32.9369 26.9422 32.9369 27.1177V33.3783ZM34.3746 25.9432L29.9646 21.532C29.9061 21.4735 29.8251 21.4409 29.7419 21.4409H24.5117C23.6691 21.4409 22.9874 22.1294 22.9874 22.972L22.9795 33.6944C22.9795 34.5359 23.6612 35.2267 24.5039 35.2267H32.6207C33.6366 35.2267 34.468 34.3942 34.468 33.3783V26.167C34.468 26.0827 34.4354 26.0017 34.3746 25.9432Z" fill="#2397D4"/>
<path fill-rule="evenodd" clip-rule="evenodd" d="M30.3232 18.3765H21.7642C20.7472 18.3765 19.917 19.2068 19.917 20.2249V30.315C19.917 30.4905 20.0576 30.6311 20.232 30.6311H21.1331C21.3064 30.6311 21.4481 30.4905 21.4481 30.315V20.2249C21.4481 20.0494 21.5899 19.9077 21.7642 19.9077H30.3232C30.4965 19.9077 30.6382 19.7659 30.6382 19.5927V18.6915C30.6382 18.5172 30.4965 18.3765 30.3232 18.3765Z" fill="#2397D4"/>
</svg>
